<svg width="37" height="25" viewBox="0 0 37 25" fill="none" xmlns="http://www.w3.org/2000/svg">
<g opacity="0.6">
<path d="M30.5221 16.6646L24.6735 9.78822L29.8684 6.82447C30.376 6.53498 30.5527 5.8887 30.2632 5.38118C29.9736 4.87358 29.3272 4.69681 28.8198 4.98637C28.3854 5.23418 18.5414 10.8503 18.0579 11.1261C17.5721 10.8489 7.7257 5.2315 7.29605 4.98637C6.78846 4.69688 6.14239 4.87344 5.85269 5.38118C5.5632 5.8887 5.73983 6.53491 6.2475 6.82447L11.4423 9.78822L5.59367 16.6646C5.21509 17.1098 5.26898 17.7774 5.71415 18.1561C6.15925 18.5348 6.82725 18.4806 7.20562 18.0356L13.3126 10.8553L17.5336 13.2635C17.8586 13.4488 18.2573 13.4488 18.5822 13.2635L22.8031 10.8553L28.9102 18.0356C29.2888 18.4809 29.9568 18.5345 30.4016 18.1561C30.8468 17.7775 30.9007 17.1098 30.5221 16.6646Z" fill="#006AC8"/>
<path d="M32.9416 0H3.17424C1.42396 0 0 1.42396 0 3.17424V21.5143C0 23.2646 1.42396 24.6885 3.17424 24.6885H32.9416C34.6918 24.6885 36.1158 23.2646 36.1158 21.5143V3.17424C36.1158 1.42396 34.6918 0 32.9416 0ZM33.9996 21.5143C33.9996 22.0977 33.525 22.5724 32.9416 22.5724H3.17424C2.59081 22.5724 2.11616 22.0977 2.11616 21.5143V3.17424C2.11616 2.59081 2.59081 2.11616 3.17424 2.11616H32.9416C33.525 2.11616 33.9996 2.59081 33.9996 3.17424V21.5143Z" fill="#006AC8"/>
</g>
</svg>
