<svg width="16" height="15" viewBox="0 0 16 15" fill="none" xmlns="http://www.w3.org/2000/svg">
<path d="M9.26212 7.49893L14.6327 2.14085C14.8679 1.90566 15 1.58668 15 1.25408C15 0.921478 14.8679 0.602498 14.6327 0.367312C14.3975 0.132126 14.0785 0 13.7459 0C13.4133 0 13.0943 0.132126 12.8592 0.367312L7.50107 5.73789L2.14298 0.367312C1.9078 0.132126 1.58882 -2.47808e-09 1.25621 0C0.92361 2.47809e-09 0.604629 0.132126 0.369443 0.367312C0.134258 0.602498 0.0021315 0.921478 0.00213149 1.25408C0.00213149 1.58668 0.134258 1.90566 0.369443 2.14085L5.74002 7.49893L0.369443 12.857C0.252379 12.9731 0.159463 13.1113 0.0960548 13.2635C0.0326462 13.4157 0 13.5789 0 13.7438C0 13.9087 0.0326462 14.0719 0.0960548 14.2241C0.159463 14.3763 0.252379 14.5144 0.369443 14.6306C0.485551 14.7476 0.623689 14.8405 0.775888 14.9039C0.928086 14.9674 1.09133 15 1.25621 15C1.42109 15 1.58434 14.9674 1.73654 14.9039C1.88874 14.8405 2.02687 14.7476 2.14298 14.6306L7.50107 9.25998L12.8592 14.6306C12.9753 14.7476 13.1134 14.8405 13.2656 14.9039C13.4178 14.9674 13.581 15 13.7459 15C13.9108 15 14.074 14.9674 14.2262 14.9039C14.3784 14.8405 14.5166 14.7476 14.6327 14.6306C14.7498 14.5144 14.8427 14.3763 14.9061 14.2241C14.9695 14.0719 15.0021 13.9087 15.0021 13.7438C15.0021 13.5789 14.9695 13.4157 14.9061 13.2635C14.8427 13.1113 14.7498 12.9731 14.6327 12.857L9.26212 7.49893Z" fill="white"/>
</svg>
