<svg width="13" height="13" viewBox="0 0 13 13" fill="none" xmlns="http://www.w3.org/2000/svg">
<path d="M4.47949 7.2973H3.46598C3.29875 7.2973 3.16192 7.16047 3.16192 6.99324V5.97973C3.16192 5.8125 3.29875 5.67568 3.46598 5.67568H4.47949C4.64672 5.67568 4.78355 5.8125 4.78355 5.97973V6.99324C4.78355 7.16047 4.64672 7.2973 4.47949 7.2973ZM7.21598 6.99324V5.97973C7.21598 5.8125 7.07915 5.67568 6.91192 5.67568H5.89841C5.73118 5.67568 5.59436 5.8125 5.59436 5.97973V6.99324C5.59436 7.16047 5.73118 7.2973 5.89841 7.2973H6.91192C7.07915 7.2973 7.21598 7.16047 7.21598 6.99324ZM9.64841 6.99324V5.97973C9.64841 5.8125 9.51159 5.67568 9.34436 5.67568H8.33084C8.16361 5.67568 8.02679 5.8125 8.02679 5.97973V6.99324C8.02679 7.16047 8.16361 7.2973 8.33084 7.2973H9.34436C9.51159 7.2973 9.64841 7.16047 9.64841 6.99324ZM7.21598 9.42568V8.41216C7.21598 8.24493 7.07915 8.10811 6.91192 8.10811H5.89841C5.73118 8.10811 5.59436 8.24493 5.59436 8.41216V9.42568C5.59436 9.59291 5.73118 9.72973 5.89841 9.72973H6.91192C7.07915 9.72973 7.21598 9.59291 7.21598 9.42568ZM4.78355 9.42568V8.41216C4.78355 8.24493 4.64672 8.10811 4.47949 8.10811H3.46598C3.29875 8.10811 3.16192 8.24493 3.16192 8.41216V9.42568C3.16192 9.59291 3.29875 9.72973 3.46598 9.72973H4.47949C4.64672 9.72973 4.78355 9.59291 4.78355 9.42568ZM9.64841 9.42568V8.41216C9.64841 8.24493 9.51159 8.10811 9.34436 8.10811H8.33084C8.16361 8.10811 8.02679 8.24493 8.02679 8.41216V9.42568C8.02679 9.59291 8.16361 9.72973 8.33084 9.72973H9.34436C9.51159 9.72973 9.64841 9.59291 9.64841 9.42568ZM12.0808 2.83784V11.7568C12.0808 12.4282 11.5361 12.973 10.8646 12.973H1.94571C1.27426 12.973 0.729492 12.4282 0.729492 11.7568V2.83784C0.729492 2.16639 1.27426 1.62162 1.94571 1.62162H3.16192V0.304054C3.16192 0.136824 3.29875 0 3.46598 0H4.47949C4.64672 0 4.78355 0.136824 4.78355 0.304054V1.62162H8.02679V0.304054C8.02679 0.136824 8.16361 0 8.33084 0H9.34436C9.51159 0 9.64841 0.136824 9.64841 0.304054V1.62162H10.8646C11.5361 1.62162 12.0808 2.16639 12.0808 2.83784ZM10.8646 11.6047V4.05405H1.94571V11.6047C1.94571 11.6883 2.01412 11.7568 2.09774 11.7568H10.7126C10.7962 11.7568 10.8646 11.6883 10.8646 11.6047Z" fill="#272F40"/>
</svg>
