<svg width="21" height="20" viewBox="0 0 21 20" fill="none" xmlns="http://www.w3.org/2000/svg">
<path fill-rule="evenodd" clip-rule="evenodd" d="M0.729492 2.80733C0.729492 2.14877 0.991105 1.51718 1.45678 1.0515C1.92245 0.585831 2.55404 0.324219 3.2126 0.324219L18.1112 0.324219C18.7698 0.324219 19.4014 0.585831 19.8671 1.0515C20.3327 1.51718 20.5944 2.14877 20.5944 2.80733V12.7398C20.5944 13.3983 20.3327 14.0299 19.8671 14.4956C19.4014 14.9613 18.7698 15.2229 18.1112 15.2229H6.20971C5.88046 15.2229 5.56472 15.3538 5.33193 15.5866L1.78978 19.1288C1.70303 19.2158 1.59244 19.275 1.47199 19.2991C1.35154 19.3232 1.22665 19.311 1.11313 19.2641C0.999613 19.2172 0.902567 19.1376 0.834276 19.0355C0.765985 18.9334 0.729518 18.8134 0.729492 18.6905V2.80733ZM6.93726 7.77354C6.93726 8.10282 6.80646 8.41862 6.57362 8.65145C6.34078 8.88429 6.02499 9.0151 5.69571 9.0151C5.36643 9.0151 5.05063 8.88429 4.8178 8.65145C4.58496 8.41862 4.45415 8.10282 4.45415 7.77354C4.45415 7.44426 4.58496 7.12847 4.8178 6.89563C5.05063 6.6628 5.36643 6.53199 5.69571 6.53199C6.02499 6.53199 6.34078 6.6628 6.57362 6.89563C6.80646 7.12847 6.93726 7.44426 6.93726 7.77354ZM11.9035 7.77354C11.9035 8.10282 11.7727 8.41862 11.5398 8.65145C11.307 8.88429 10.9912 9.0151 10.6619 9.0151C10.3326 9.0151 10.0168 8.88429 9.78401 8.65145C9.55118 8.41862 9.42037 8.10282 9.42037 7.77354C9.42037 7.44426 9.55118 7.12847 9.78401 6.89563C10.0168 6.6628 10.3326 6.53199 10.6619 6.53199C10.9912 6.53199 11.307 6.6628 11.5398 6.89563C11.7727 7.12847 11.9035 7.44426 11.9035 7.77354ZM15.6281 9.0151C15.9574 9.0151 16.2732 8.88429 16.5061 8.65145C16.7389 8.41862 16.8697 8.10282 16.8697 7.77354C16.8697 7.44426 16.7389 7.12847 16.5061 6.89563C16.2732 6.6628 15.9574 6.53199 15.6281 6.53199C15.2989 6.53199 14.9831 6.6628 14.7502 6.89563C14.5174 7.12847 14.3866 7.44426 14.3866 7.77354C14.3866 8.10282 14.5174 8.41862 14.7502 8.65145C14.9831 8.88429 15.2989 9.0151 15.6281 9.0151Z" fill="#272F40"/>
</svg>
